# Blender 4.1.1
# www.blender.org
mtllib skydome.mtl
o 円柱
o 円錐
v 100.000046 0.000044 -1000.000000
v 98.078568 -19.508989 -1000.000000
v 92.387993 -38.268303 -1000.000000
v 83.147003 -55.556984 -1000.000000
v 70.710724 -70.710632 -1000.000000
v 55.557068 -83.146912 -1000.000000
v 38.268387 -92.387901 -1000.000000
v 19.509077 -98.078476 -1000.000000
v 0.000044 -99.999954 -1000.000000
v -19.508989 -98.078476 -1000.000000
v -38.268303 -92.387901 -1000.000000
v -55.556984 -83.146912 -1000.000000
v -70.710632 -70.710632 -1000.000000
v -83.146912 -55.556984 -1000.000000
v -92.387901 -38.268303 -1000.000000
v -98.078476 -19.508989 -1000.000000
v -99.999954 0.000044 -1000.000000
v -98.078476 19.509077 -1000.000000
v -92.387901 38.268387 -1000.000000
v -83.146912 55.557068 -1000.000000
v -70.710632 70.710724 -1000.000000
v -55.556984 83.147003 -1000.000000
v -38.268303 92.387993 -1000.000000
v -19.508989 98.078568 -1000.000000
v 0.000044 100.000046 -1000.000000
v 19.509077 98.078568 -1000.000000
v 38.268387 92.387993 -1000.000000
v 55.557068 83.147003 -1000.000000
v 70.710724 70.710724 -1000.000000
v 83.147003 55.557068 -1000.000000
v 92.387993 38.268387 -1000.000000
v 98.078568 19.509077 -1000.000000
v -0.000044 -0.000044 1000.000000
vn -0.9940 0.0979 -0.0497
vn -0.9558 0.2899 -0.0497
vn -0.8808 0.4708 -0.0497
vn -0.7721 0.6336 -0.0497
vn -0.6336 0.7721 -0.0497
vn -0.4708 0.8808 -0.0497
vn -0.2899 0.9558 -0.0497
vn -0.0979 0.9940 -0.0497
vn 0.0979 0.9940 -0.0497
vn 0.2899 0.9558 -0.0497
vn 0.4708 0.8808 -0.0497
vn 0.6336 0.7721 -0.0497
vn 0.7721 0.6336 -0.0497
vn 0.8808 0.4708 -0.0497
vn 0.9558 0.2899 -0.0497
vn 0.9940 0.0979 -0.0497
vn 0.9940 -0.0979 -0.0497
vn 0.9558 -0.2899 -0.0497
vn 0.8808 -0.4708 -0.0497
vn 0.7721 -0.6336 -0.0497
vn 0.6336 -0.7721 -0.0497
vn 0.4708 -0.8808 -0.0497
vn 0.2899 -0.9558 -0.0497
vn 0.0979 -0.9940 -0.0497
vn -0.0979 -0.9940 -0.0497
vn -0.2899 -0.9558 -0.0497
vn -0.4708 -0.8808 -0.0497
vn -0.6336 -0.7721 -0.0497
vn -0.7721 -0.6336 -0.0497
vn -0.8808 -0.4708 -0.0497
vn -0.0000 -0.0000 1.0000
vn -0.9558 -0.2899 -0.0497
vn -0.9940 -0.0979 -0.0497
vt 0.154961 0.882114
vt 0.124129 0.849227
vt 0.514300 0.514316
vt 0.096295 0.813767
vt 0.071674 0.776006
vt 0.050455 0.736232
vt 0.032801 0.694754
vt 0.018847 0.651888
vt 0.008702 0.607965
vt 0.002443 0.563323
vt 0.000117 0.518303
vt 0.001744 0.473253
vt 0.007310 0.428519
vt 0.016773 0.384444
vt 0.030060 0.341367
vt 0.047069 0.299620
vt 0.067668 0.259522
vt 0.091701 0.221383
vt 0.118981 0.185496
vt 0.149300 0.152135
vt 0.182424 0.121559
vt 0.218099 0.094001
vt 0.256051 0.069673
vt 0.295987 0.048763
vt 0.337602 0.031431
vt 0.380574 0.017811
vt 0.424574 0.008006
vt 0.469264 0.002094
vt 0.514300 0.000117
vt 0.345112 0.999883
vt 0.303234 0.983198
vt 0.262978 0.962910
vt 0.224654 0.939174
vt 0.523330 0.295720
vt 0.676631 0.008912
vt 0.963439 0.162214
vt 0.188556 0.912173
vt 0.972233 0.206427
vt 0.972233 0.251506
vt 0.963439 0.295719
vt 0.946188 0.337367
vt 0.921143 0.374849
vt 0.889267 0.406725
vt 0.851785 0.431770
vt 0.810137 0.449021
vt 0.765924 0.457816
vt 0.720845 0.457816
vt 0.676632 0.449021
vt 0.634984 0.431770
vt 0.597502 0.406725
vt 0.565626 0.374849
vt 0.540581 0.337367
vt 0.514535 0.251506
vt 0.514535 0.206427
vt 0.523330 0.162214
vt 0.540581 0.120566
vt 0.565625 0.083084
vt 0.597501 0.051208
vt 0.634983 0.026163
vt 0.720844 0.000117
vt 0.765924 0.000117
vt 0.810137 0.008912
vt 0.851785 0.026163
vt 0.889267 0.051208
vt 0.921143 0.083084
vt 0.946188 0.120566
s 0
usemtl マテリアル.002
f 1/1/1 2/2/1 33/3/1
f 2/2/2 3/4/2 33/3/2
f 3/4/3 4/5/3 33/3/3
f 4/5/4 5/6/4 33/3/4
f 5/6/5 6/7/5 33/3/5
f 6/7/6 7/8/6 33/3/6
f 7/8/7 8/9/7 33/3/7
f 8/9/8 9/10/8 33/3/8
f 9/10/9 10/11/9 33/3/9
f 10/11/10 11/12/10 33/3/10
f 11/12/11 12/13/11 33/3/11
f 12/13/12 13/14/12 33/3/12
f 13/14/13 14/15/13 33/3/13
f 14/15/14 15/16/14 33/3/14
f 15/16/15 16/17/15 33/3/15
f 16/17/16 17/18/16 33/3/16
f 17/18/17 18/19/17 33/3/17
f 18/19/18 19/20/18 33/3/18
f 19/20/19 20/21/19 33/3/19
f 20/21/20 21/22/20 33/3/20
f 21/22/21 22/23/21 33/3/21
f 22/23/22 23/24/22 33/3/22
f 23/24/23 24/25/23 33/3/23
f 24/25/24 25/26/24 33/3/24
f 25/26/25 26/27/25 33/3/25
f 26/27/26 27/28/26 33/3/26
f 27/28/27 28/29/27 33/3/27
f 28/30/28 29/31/28 33/3/28
f 29/31/29 30/32/29 33/3/29
f 30/32/30 31/33/30 33/3/30
f 18/34/31 10/35/31 2/36/31
f 31/33/32 32/37/32 33/3/32
f 32/37/33 1/1/33 33/3/33
f 2/36/31 1/38/31 32/39/31
f 32/39/31 31/40/31 30/41/31
f 30/41/31 29/42/31 28/43/31
f 28/43/31 27/44/31 26/45/31
f 26/45/31 25/46/31 24/47/31
f 24/47/31 23/48/31 22/49/31
f 22/49/31 21/50/31 20/51/31
f 20/51/31 19/52/31 18/34/31
f 18/34/31 17/53/31 16/54/31
f 16/54/31 15/55/31 14/56/31
f 14/56/31 13/57/31 12/58/31
f 12/58/31 11/59/31 10/35/31
f 10/35/31 9/60/31 8/61/31
f 8/61/31 7/62/31 6/63/31
f 6/63/31 5/64/31 4/65/31
f 4/65/31 3/66/31 2/36/31
f 2/36/31 32/39/31 30/41/31
f 30/41/31 28/43/31 26/45/31
f 26/45/31 24/47/31 22/49/31
f 22/49/31 20/51/31 18/34/31
f 18/34/31 16/54/31 14/56/31
f 14/56/31 12/58/31 10/35/31
f 10/35/31 8/61/31 6/63/31
f 6/63/31 4/65/31 2/36/31
f 2/36/31 30/41/31 26/45/31
f 26/45/31 22/49/31 18/34/31
f 18/34/31 14/56/31 10/35/31
f 10/35/31 6/63/31 2/36/31
f 2/36/31 26/45/31 18/34/31
